{
	"asset":{
		"generator":"Khronos glTF Blender I/O v4.5.47",
		"version":"2.0"
	},
	"scene":0,
	"scenes":[
		{
			"name":"Scene",
			"nodes":[
				0
			]
		}
	],
	"nodes":[
		{
			"mesh":0,
			"name":"Sphere.002",
			"scale":[
				0.16974560916423798,
				0.22483262419700623,
				0.18103590607643127
			]
		}
	],
	"materials":[
		{
			"doubleSided":true,
			"name":"Material.005",
			"pbrMetallicRoughness":{
				"baseColorTexture":{
					"index":0
				},
				"metallicFactor":0,
				"roughnessFactor":0.5
			}
		}
	],
	"meshes":[
		{
			"name":"Sphere.003",
			"primitives":[
				{
					"attributes":{
						"POSITION":0,
						"NORMAL":1,
						"TEXCOORD_0":2
					},
					"indices":3,
					"material":0
				}
			]
		}
	],
	"textures":[
		{
			"sampler":0,
			"source":0
		}
	],
	"images":[
		{
			"mimeType":"image/png",
			"name":"poison_baseColour",
			"uri":"poison_baseColour.png"
		}
	],
	"accessors":[
		{
			"bufferView":0,
			"componentType":5126,
			"count":5996,
			"max":[
				0.9807851314544678,
				7.634840965270996,
				0.9807849526405334
			],
			"min":[
				-1.4853768348693848,
				-1,
				-0.9807853698730469
			],
			"type":"VEC3"
		},
		{
			"bufferView":1,
			"componentType":5126,
			"count":5996,
			"type":"VEC3"
		},
		{
			"bufferView":2,
			"componentType":5126,
			"count":5996,
			"type":"VEC2"
		},
		{
			"bufferView":3,
			"componentType":5123,
			"count":9216,
			"type":"SCALAR"
		}
	],
	"bufferViews":[
		{
			"buffer":0,
			"byteLength":71952,
			"byteOffset":0,
			"target":34962
		},
		{
			"buffer":0,
			"byteLength":71952,
			"byteOffset":71952,
			"target":34962
		},
		{
			"buffer":0,
			"byteLength":47968,
			"byteOffset":143904,
			"target":34962
		},
		{
			"buffer":0,
			"byteLength":18432,
			"byteOffset":191872,
			"target":34963
		}
	],
	"samplers":[
		{
			"magFilter":9729,
			"minFilter":9987
		}
	],
	"buffers":[
		{
			"byteLength":210304,
			"uri":"poisonpotion.bin"
		}
	]
}
