{
	"asset":{
		"generator":"Khronos glTF Blender I/O v5.1.18",
		"version":"2.0"
	},
	"scene":0,
	"scenes":[
		{
			"name":"Scene",
			"nodes":[
				0
			]
		}
	],
	"nodes":[
		{
			"mesh":0,
			"name":"Icosphere.156",
			"rotation":[
				-0.2956874668598175,
				0.00025428441585972905,
				-0.9552843570709229,
				0.0008210681844502687
			],
			"scale":[
				0.21420900523662567,
				0.21420903503894806,
				0.21420900523662567
			],
			"translation":[
				3.902848243713379,
				0,
				6.510354042053223
			]
		}
	],
	"materials":[
		{
			"doubleSided":true,
			"name":"Material.001",
			"pbrMetallicRoughness":{
				"baseColorTexture":{
					"index":0
				},
				"metallicFactor":0,
				"roughnessFactor":0.5
			}
		}
	],
	"meshes":[
		{
			"name":"Icosphere.156",
			"primitives":[
				{
					"attributes":{
						"POSITION":0,
						"NORMAL":1,
						"TEXCOORD_0":2
					},
					"indices":3,
					"material":0
				}
			]
		}
	],
	"textures":[
		{
			"sampler":0,
			"source":0
		}
	],
	"images":[
		{
			"mimeType":"image/png",
			"name":"Tree_BaseColour",
			"uri":"Tree_BaseColour.png"
		}
	],
	"accessors":[
		{
			"bufferView":0,
			"componentType":5126,
			"count":85282,
			"max":[
				34.54054641723633,
				1.317260503768921,
				6.026742935180664
			],
			"min":[
				-34.50192642211914,
				-8.954411506652832,
				-63.95899200439453
			],
			"type":"VEC3"
		},
		{
			"bufferView":1,
			"componentType":5126,
			"count":85282,
			"type":"VEC3"
		},
		{
			"bufferView":2,
			"componentType":5126,
			"count":85282,
			"type":"VEC2"
		},
		{
			"bufferView":3,
			"componentType":5125,
			"count":114912,
			"type":"SCALAR"
		}
	],
	"bufferViews":[
		{
			"buffer":0,
			"byteLength":1023384,
			"byteOffset":0,
			"target":34962
		},
		{
			"buffer":0,
			"byteLength":1023384,
			"byteOffset":1023384,
			"target":34962
		},
		{
			"buffer":0,
			"byteLength":682256,
			"byteOffset":2046768,
			"target":34962
		},
		{
			"buffer":0,
			"byteLength":459648,
			"byteOffset":2729024,
			"target":34963
		}
	],
	"samplers":[
		{
			"magFilter":9729,
			"minFilter":9987
		}
	],
	"buffers":[
		{
			"byteLength":3188672,
			"uri":"Group%20of%20trees.bin"
		}
	]
}
