{
	"asset":{
		"generator":"Khronos glTF Blender I/O v4.5.47",
		"version":"2.0"
	},
	"scene":0,
	"scenes":[
		{
			"name":"Scene",
			"nodes":[
				0
			]
		}
	],
	"nodes":[
		{
			"mesh":0,
			"name":"flower",
			"scale":[
				0.3543989658355713,
				0.80356764793396,
				0.3064403533935547
			]
		}
	],
	"materials":[
		{
			"doubleSided":true,
			"name":"Material.001",
			"pbrMetallicRoughness":{
				"baseColorTexture":{
					"index":0
				},
				"metallicFactor":0,
				"roughnessFactor":0.5
			}
		}
	],
	"meshes":[
		{
			"name":"Sphere",
			"primitives":[
				{
					"attributes":{
						"POSITION":0,
						"NORMAL":1,
						"TEXCOORD_0":2
					},
					"indices":3,
					"material":0
				}
			]
		}
	],
	"textures":[
		{
			"sampler":0,
			"source":0
		}
	],
	"images":[
		{
			"mimeType":"image/png",
			"name":"flower_baseColour",
			"uri":"flower_baseColour.png"
		}
	],
	"accessors":[
		{
			"bufferView":0,
			"componentType":5126,
			"count":1685,
			"max":[
				4.890506744384766,
				1.8472704887390137,
				6.106926918029785
			],
			"min":[
				-4.198888778686523,
				-2.400778293609619,
				-5.213477611541748
			],
			"type":"VEC3"
		},
		{
			"bufferView":1,
			"componentType":5126,
			"count":1685,
			"type":"VEC3"
		},
		{
			"bufferView":2,
			"componentType":5126,
			"count":1685,
			"type":"VEC2"
		},
		{
			"bufferView":3,
			"componentType":5123,
			"count":2475,
			"type":"SCALAR"
		}
	],
	"bufferViews":[
		{
			"buffer":0,
			"byteLength":20220,
			"byteOffset":0,
			"target":34962
		},
		{
			"buffer":0,
			"byteLength":20220,
			"byteOffset":20220,
			"target":34962
		},
		{
			"buffer":0,
			"byteLength":13480,
			"byteOffset":40440,
			"target":34962
		},
		{
			"buffer":0,
			"byteLength":4950,
			"byteOffset":53920,
			"target":34963
		}
	],
	"samplers":[
		{
			"magFilter":9729,
			"minFilter":9987
		}
	],
	"buffers":[
		{
			"byteLength":58872,
			"uri":"flower.bin"
		}
	]
}
