{
	"asset":{
		"generator":"Khronos glTF Blender I/O v4.5.47",
		"version":"2.0"
	},
	"scene":0,
	"scenes":[
		{
			"name":"Scene",
			"nodes":[
				0
			]
		}
	],
	"nodes":[
		{
			"mesh":0,
			"name":"Shroom",
			"rotation":[
				0.2908817231655121,
				0,
				0,
				0.9567590355873108
			],
			"scale":[
				0.4285898208618164,
				0.428589791059494,
				0.428589791059494
			]
		}
	],
	"materials":[
		{
			"doubleSided":true,
			"name":"ShroomMat",
			"pbrMetallicRoughness":{
				"baseColorTexture":{
					"index":0
				},
				"metallicFactor":0,
				"roughnessFactor":0.5
			}
		}
	],
	"meshes":[
		{
			"name":"Sphere.001",
			"primitives":[
				{
					"attributes":{
						"POSITION":0,
						"NORMAL":1,
						"TEXCOORD_0":2
					},
					"indices":3,
					"material":0
				}
			]
		}
	],
	"textures":[
		{
			"sampler":0,
			"source":0
		}
	],
	"images":[
		{
			"mimeType":"image/png",
			"name":"ShroomColor",
			"uri":"ShroomColor.png"
		}
	],
	"accessors":[
		{
			"bufferView":0,
			"componentType":5126,
			"count":5570,
			"max":[
				11.267943382263184,
				17.192798614501953,
				4.644257545471191
			],
			"min":[
				-11.267943382263184,
				-6.607174396514893,
				-18.196752548217773
			],
			"type":"VEC3"
		},
		{
			"bufferView":1,
			"componentType":5126,
			"count":5570,
			"type":"VEC3"
		},
		{
			"bufferView":2,
			"componentType":5126,
			"count":5570,
			"type":"VEC2"
		},
		{
			"bufferView":3,
			"componentType":5123,
			"count":8832,
			"type":"SCALAR"
		}
	],
	"bufferViews":[
		{
			"buffer":0,
			"byteLength":66840,
			"byteOffset":0,
			"target":34962
		},
		{
			"buffer":0,
			"byteLength":66840,
			"byteOffset":66840,
			"target":34962
		},
		{
			"buffer":0,
			"byteLength":44560,
			"byteOffset":133680,
			"target":34962
		},
		{
			"buffer":0,
			"byteLength":17664,
			"byteOffset":178240,
			"target":34963
		}
	],
	"samplers":[
		{
			"magFilter":9729,
			"minFilter":9987
		}
	],
	"buffers":[
		{
			"byteLength":195904,
			"uri":"shroom.bin"
		}
	]
}
