{
	"asset":{
		"generator":"Khronos glTF Blender I/O v4.5.47",
		"version":"2.0"
	},
	"scene":0,
	"scenes":[
		{
			"name":"Scene",
			"nodes":[
				0
			]
		}
	],
	"nodes":[
		{
			"mesh":0,
			"name":"Sphere.003",
			"rotation":[
				0.8837176561355591,
				0,
				0,
				0.4680204689502716
			],
			"scale":[
				-0.16868415474891663,
				-0.16868413984775543,
				-0.16868413984775543
			],
			"translation":[
				-3.6370835304260254,
				0.48144882917404175,
				3.7228446006774902
			]
		}
	],
	"materials":[
		{
			"doubleSided":true,
			"name":"Material.007",
			"pbrMetallicRoughness":{
				"baseColorTexture":{
					"index":0
				},
				"metallicFactor":0,
				"roughnessFactor":0.5
			}
		}
	],
	"meshes":[
		{
			"name":"Sphere.005",
			"primitives":[
				{
					"attributes":{
						"POSITION":0,
						"NORMAL":1,
						"TEXCOORD_0":2
					},
					"indices":3,
					"material":0
				}
			]
		}
	],
	"textures":[
		{
			"sampler":0,
			"source":0
		}
	],
	"images":[
		{
			"mimeType":"image/png",
			"name":"Sphere.001 Base Color",
			"uri":"Sphere.001%20Base%20Color.png"
		}
	],
	"accessors":[
		{
			"bufferView":0,
			"componentType":5126,
			"count":5968,
			"max":[
				3.6251258850097656,
				43.107696533203125,
				12.004405975341797
			],
			"min":[
				-45.35659408569336,
				-9.475883483886719,
				-28.543609619140625
			],
			"type":"VEC3"
		},
		{
			"bufferView":1,
			"componentType":5126,
			"count":5968,
			"type":"VEC3"
		},
		{
			"bufferView":2,
			"componentType":5126,
			"count":5968,
			"type":"VEC2"
		},
		{
			"bufferView":3,
			"componentType":5123,
			"count":9804,
			"type":"SCALAR"
		}
	],
	"bufferViews":[
		{
			"buffer":0,
			"byteLength":71616,
			"byteOffset":0,
			"target":34962
		},
		{
			"buffer":0,
			"byteLength":71616,
			"byteOffset":71616,
			"target":34962
		},
		{
			"buffer":0,
			"byteLength":47744,
			"byteOffset":143232,
			"target":34962
		},
		{
			"buffer":0,
			"byteLength":19608,
			"byteOffset":190976,
			"target":34963
		}
	],
	"samplers":[
		{
			"magFilter":9729,
			"minFilter":9987
		}
	],
	"buffers":[
		{
			"byteLength":210584,
			"uri":"shroom_cut.bin"
		}
	]
}
