{
	"asset":{
		"generator":"Khronos glTF Blender I/O v4.5.47",
		"version":"2.0"
	},
	"scene":0,
	"scenes":[
		{
			"name":"Scene",
			"nodes":[
				0
			]
		}
	],
	"nodes":[
		{
			"mesh":0,
			"name":"Sphere",
			"scale":[
				0.8243802785873413,
				0.8243802785873413,
				0.8243802785873413
			],
			"translation":[
				0,
				0.9587612748146057,
				0
			]
		}
	],
	"animations":[
		{
			"channels":[
				{
					"sampler":0,
					"target":{
						"node":0,
						"path":"translation"
					}
				},
				{
					"sampler":1,
					"target":{
						"node":0,
						"path":"rotation"
					}
				},
				{
					"sampler":2,
					"target":{
						"node":0,
						"path":"scale"
					}
				}
			],
			"name":"SphereAction",
			"samplers":[
				{
					"input":4,
					"interpolation":"LINEAR",
					"output":5
				},
				{
					"input":4,
					"interpolation":"LINEAR",
					"output":6
				},
				{
					"input":4,
					"interpolation":"LINEAR",
					"output":7
				}
			]
		}
	],
	"materials":[
		{
			"doubleSided":true,
			"name":"Material.003",
			"pbrMetallicRoughness":{
				"baseColorTexture":{
					"index":0
				},
				"metallicFactor":0,
				"roughnessFactor":0.5
			}
		}
	],
	"meshes":[
		{
			"name":"Sphere.001",
			"primitives":[
				{
					"attributes":{
						"POSITION":0,
						"NORMAL":1,
						"TEXCOORD_0":2
					},
					"indices":3,
					"material":0
				}
			]
		}
	],
	"textures":[
		{
			"sampler":0,
			"source":0
		}
	],
	"images":[
		{
			"mimeType":"image/png",
			"name":"dmg_BaseColor",
			"uri":"dmg_BaseColor.png"
		}
	],
	"accessors":[
		{
			"bufferView":0,
			"componentType":5126,
			"count":8990,
			"max":[
				1.1513097286224365,
				2.685495138168335,
				1.1450564861297607
			],
			"min":[
				-1.2035804986953735,
				-0.4285706877708435,
				-1.145057201385498
			],
			"type":"VEC3"
		},
		{
			"bufferView":1,
			"componentType":5126,
			"count":8990,
			"type":"VEC3"
		},
		{
			"bufferView":2,
			"componentType":5126,
			"count":8990,
			"type":"VEC2"
		},
		{
			"bufferView":3,
			"componentType":5123,
			"count":13962,
			"type":"SCALAR"
		},
		{
			"bufferView":4,
			"componentType":5126,
			"count":1,
			"max":[
				0.041666666666666664
			],
			"min":[
				0.041666666666666664
			],
			"type":"SCALAR"
		},
		{
			"bufferView":5,
			"componentType":5126,
			"count":1,
			"type":"VEC3"
		},
		{
			"bufferView":6,
			"componentType":5126,
			"count":1,
			"type":"VEC4"
		},
		{
			"bufferView":7,
			"componentType":5126,
			"count":1,
			"type":"VEC3"
		}
	],
	"bufferViews":[
		{
			"buffer":0,
			"byteLength":107880,
			"byteOffset":0,
			"target":34962
		},
		{
			"buffer":0,
			"byteLength":107880,
			"byteOffset":107880,
			"target":34962
		},
		{
			"buffer":0,
			"byteLength":71920,
			"byteOffset":215760,
			"target":34962
		},
		{
			"buffer":0,
			"byteLength":27924,
			"byteOffset":287680,
			"target":34963
		},
		{
			"buffer":0,
			"byteLength":4,
			"byteOffset":315604
		},
		{
			"buffer":0,
			"byteLength":12,
			"byteOffset":315608
		},
		{
			"buffer":0,
			"byteLength":16,
			"byteOffset":315620
		},
		{
			"buffer":0,
			"byteLength":12,
			"byteOffset":315636
		}
	],
	"samplers":[
		{
			"magFilter":9729,
			"minFilter":9987
		}
	],
	"buffers":[
		{
			"byteLength":315648,
			"uri":"dmgpotion.bin"
		}
	]
}
