{
	"asset":{
		"generator":"Khronos glTF Blender I/O v4.5.47",
		"version":"2.0"
	},
	"scene":0,
	"scenes":[
		{
			"name":"Scene",
			"nodes":[
				0
			]
		}
	],
	"nodes":[
		{
			"mesh":0,
			"name":"Sphere",
			"translation":[
				0,
				1.161008596420288,
				0
			]
		}
	],
	"materials":[
		{
			"doubleSided":true,
			"name":"Material.001",
			"pbrMetallicRoughness":{
				"baseColorTexture":{
					"index":0
				},
				"metallicFactor":0,
				"roughnessFactor":0.5
			}
		}
	],
	"meshes":[
		{
			"name":"Sphere",
			"primitives":[
				{
					"attributes":{
						"POSITION":0,
						"NORMAL":1,
						"TEXCOORD_0":2
					},
					"indices":3,
					"material":0
				}
			]
		}
	],
	"textures":[
		{
			"sampler":0,
			"source":0
		}
	],
	"images":[
		{
			"mimeType":"image/png",
			"name":"Cauldron_BaseColour",
			"uri":"Cauldron_BaseColour.png"
		}
	],
	"accessors":[
		{
			"bufferView":0,
			"componentType":5126,
			"count":2976,
			"max":[
				1.0433038473129272,
				0.8560041189193726,
				1.0433038473129272
			],
			"min":[
				-1.0433036088943481,
				-1.1809941530227661,
				-1.0433036088943481
			],
			"type":"VEC3"
		},
		{
			"bufferView":1,
			"componentType":5126,
			"count":2976,
			"type":"VEC3"
		},
		{
			"bufferView":2,
			"componentType":5126,
			"count":2976,
			"type":"VEC2"
		},
		{
			"bufferView":3,
			"componentType":5123,
			"count":4410,
			"type":"SCALAR"
		}
	],
	"bufferViews":[
		{
			"buffer":0,
			"byteLength":35712,
			"byteOffset":0,
			"target":34962
		},
		{
			"buffer":0,
			"byteLength":35712,
			"byteOffset":35712,
			"target":34962
		},
		{
			"buffer":0,
			"byteLength":23808,
			"byteOffset":71424,
			"target":34962
		},
		{
			"buffer":0,
			"byteLength":8820,
			"byteOffset":95232,
			"target":34963
		}
	],
	"samplers":[
		{
			"magFilter":9729,
			"minFilter":9987
		}
	],
	"buffers":[
		{
			"byteLength":104052,
			"uri":"cauldron.bin"
		}
	]
}
