{
	"asset":{
		"generator":"Khronos glTF Blender I/O v4.5.47",
		"version":"2.0"
	},
	"scene":0,
	"scenes":[
		{
			"name":"Scene",
			"nodes":[
				0
			]
		}
	],
	"nodes":[
		{
			"mesh":0,
			"name":"Cube",
			"scale":[
				0.47884610295295715,
				0.47884610295295715,
				0.47884610295295715
			]
		}
	],
	"materials":[
		{
			"doubleSided":true,
			"name":"Material.006",
			"pbrMetallicRoughness":{
				"baseColorTexture":{
					"index":0
				},
				"metallicFactor":0,
				"roughnessFactor":0.5
			}
		}
	],
	"meshes":[
		{
			"name":"Cube",
			"primitives":[
				{
					"attributes":{
						"POSITION":0,
						"NORMAL":1,
						"TEXCOORD_0":2
					},
					"indices":3,
					"material":0
				}
			]
		}
	],
	"textures":[
		{
			"sampler":0,
			"source":0
		}
	],
	"images":[
		{
			"mimeType":"image/png",
			"name":"push_BaseColour",
			"uri":"push_BaseColour.png"
		}
	],
	"accessors":[
		{
			"bufferView":0,
			"componentType":5126,
			"count":716,
			"max":[
				1,
				2.9685707092285156,
				1
			],
			"min":[
				-1.0690083503723145,
				-1,
				-1
			],
			"type":"VEC3"
		},
		{
			"bufferView":1,
			"componentType":5126,
			"count":716,
			"type":"VEC3"
		},
		{
			"bufferView":2,
			"componentType":5126,
			"count":716,
			"type":"VEC2"
		},
		{
			"bufferView":3,
			"componentType":5123,
			"count":1320,
			"type":"SCALAR"
		}
	],
	"bufferViews":[
		{
			"buffer":0,
			"byteLength":8592,
			"byteOffset":0,
			"target":34962
		},
		{
			"buffer":0,
			"byteLength":8592,
			"byteOffset":8592,
			"target":34962
		},
		{
			"buffer":0,
			"byteLength":5728,
			"byteOffset":17184,
			"target":34962
		},
		{
			"buffer":0,
			"byteLength":2640,
			"byteOffset":22912,
			"target":34963
		}
	],
	"samplers":[
		{
			"magFilter":9729,
			"minFilter":9987
		}
	],
	"buffers":[
		{
			"byteLength":25552,
			"uri":"pushpotion.bin"
		}
	]
}
