{
	"asset":{
		"generator":"Khronos glTF Blender I/O v4.5.47",
		"version":"2.0"
	},
	"scene":0,
	"scenes":[
		{
			"name":"Scene",
			"nodes":[
				0
			]
		}
	],
	"nodes":[
		{
			"mesh":0,
			"name":"Sphere",
			"translation":[
				0,
				1.0340832471847534,
				0
			]
		}
	],
	"materials":[
		{
			"doubleSided":true,
			"name":"Material.001",
			"pbrMetallicRoughness":{
				"baseColorTexture":{
					"index":0
				},
				"metallicFactor":0,
				"roughnessFactor":0.5
			}
		}
	],
	"meshes":[
		{
			"name":"Sphere",
			"primitives":[
				{
					"attributes":{
						"POSITION":0,
						"NORMAL":1,
						"TEXCOORD_0":2
					},
					"indices":3,
					"material":0
				}
			]
		}
	],
	"textures":[
		{
			"sampler":0,
			"source":0
		}
	],
	"images":[
		{
			"mimeType":"image/png",
			"name":"slime_BaseColour",
			"uri":"slime_BaseColour.png"
		}
	],
	"accessors":[
		{
			"bufferView":0,
			"componentType":5126,
			"count":2406,
			"max":[
				1.1747044324874878,
				1.1956672668457031,
				1.4419232606887817
			],
			"min":[
				-1.174703598022461,
				-0.9338537454605103,
				-1.0867847204208374
			],
			"type":"VEC3"
		},
		{
			"bufferView":1,
			"componentType":5126,
			"count":2406,
			"type":"VEC3"
		},
		{
			"bufferView":2,
			"componentType":5126,
			"count":2406,
			"type":"VEC2"
		},
		{
			"bufferView":3,
			"componentType":5123,
			"count":4398,
			"type":"SCALAR"
		}
	],
	"bufferViews":[
		{
			"buffer":0,
			"byteLength":28872,
			"byteOffset":0,
			"target":34962
		},
		{
			"buffer":0,
			"byteLength":28872,
			"byteOffset":28872,
			"target":34962
		},
		{
			"buffer":0,
			"byteLength":19248,
			"byteOffset":57744,
			"target":34962
		},
		{
			"buffer":0,
			"byteLength":8796,
			"byteOffset":76992,
			"target":34963
		}
	],
	"samplers":[
		{
			"magFilter":9729,
			"minFilter":9987
		}
	],
	"buffers":[
		{
			"byteLength":85788,
			"uri":"slime.bin"
		}
	]
}
