{
	"asset":{
		"generator":"Khronos glTF Blender I/O v4.5.47",
		"version":"2.0"
	},
	"scene":0,
	"scenes":[
		{
			"name":"Scene",
			"nodes":[
				0
			]
		}
	],
	"nodes":[
		{
			"mesh":0,
			"name":"Stam. Potion",
			"scale":[
				0.4667666554450989,
				0.4667666554450989,
				0.4667666554450989
			],
			"translation":[
				0,
				0.42006146907806396,
				-0.0050106048583984375
			]
		}
	],
	"materials":[
		{
			"doubleSided":true,
			"name":"Material.002",
			"pbrMetallicRoughness":{
				"baseColorTexture":{
					"index":0
				},
				"metallicFactor":0,
				"roughnessFactor":0.5
			}
		}
	],
	"meshes":[
		{
			"name":"Cube.001",
			"primitives":[
				{
					"attributes":{
						"POSITION":0,
						"NORMAL":1,
						"TEXCOORD_0":2
					},
					"indices":3,
					"material":0
				}
			]
		}
	],
	"textures":[
		{
			"sampler":0,
			"source":0
		}
	],
	"images":[
		{
			"mimeType":"image/png",
			"name":"Stamina_BaseColor",
			"uri":"Stamina_BaseColor.png"
		}
	],
	"accessors":[
		{
			"bufferView":0,
			"componentType":5126,
			"count":427,
			"max":[
				1,
				3.999030828475952,
				1.0499248504638672
			],
			"min":[
				-1,
				-1,
				-0.9500751495361328
			],
			"type":"VEC3"
		},
		{
			"bufferView":1,
			"componentType":5126,
			"count":427,
			"type":"VEC3"
		},
		{
			"bufferView":2,
			"componentType":5126,
			"count":427,
			"type":"VEC2"
		},
		{
			"bufferView":3,
			"componentType":5123,
			"count":714,
			"type":"SCALAR"
		}
	],
	"bufferViews":[
		{
			"buffer":0,
			"byteLength":5124,
			"byteOffset":0,
			"target":34962
		},
		{
			"buffer":0,
			"byteLength":5124,
			"byteOffset":5124,
			"target":34962
		},
		{
			"buffer":0,
			"byteLength":3416,
			"byteOffset":10248,
			"target":34962
		},
		{
			"buffer":0,
			"byteLength":1428,
			"byteOffset":13664,
			"target":34963
		}
	],
	"samplers":[
		{
			"magFilter":9729,
			"minFilter":9987
		}
	],
	"buffers":[
		{
			"byteLength":15092,
			"uri":"stapotion.bin"
		}
	]
}
