{
	"asset":{
		"generator":"Khronos glTF Blender I/O v4.5.47",
		"version":"2.0"
	},
	"scene":0,
	"scenes":[
		{
			"name":"Scene",
			"nodes":[
				0
			]
		}
	],
	"nodes":[
		{
			"mesh":0,
			"name":"Sphere.001",
			"scale":[
				0.39660322666168213,
				0.39660322666168213,
				0.39660322666168213
			]
		}
	],
	"materials":[
		{
			"doubleSided":true,
			"name":"Material",
			"pbrMetallicRoughness":{
				"baseColorTexture":{
					"index":0
				},
				"metallicFactor":0,
				"roughnessFactor":0.5
			}
		}
	],
	"meshes":[
		{
			"name":"Sphere",
			"primitives":[
				{
					"attributes":{
						"POSITION":0,
						"NORMAL":1,
						"TEXCOORD_0":2
					},
					"indices":3,
					"material":0
				}
			]
		}
	],
	"textures":[
		{
			"sampler":0,
			"source":0
		}
	],
	"images":[
		{
			"mimeType":"image/png",
			"name":"hp_BaseColour",
			"uri":"hp_BaseColour.png"
		}
	],
	"accessors":[
		{
			"bufferView":0,
			"componentType":5126,
			"count":3704,
			"max":[
				1.4825929403305054,
				4.722368240356445,
				1.5097168684005737
			],
			"min":[
				-1.4825921058654785,
				-1.0659377574920654,
				-1.5097178220748901
			],
			"type":"VEC3"
		},
		{
			"bufferView":1,
			"componentType":5126,
			"count":3704,
			"type":"VEC3"
		},
		{
			"bufferView":2,
			"componentType":5126,
			"count":3704,
			"type":"VEC2"
		},
		{
			"bufferView":3,
			"componentType":5123,
			"count":5406,
			"type":"SCALAR"
		}
	],
	"bufferViews":[
		{
			"buffer":0,
			"byteLength":44448,
			"byteOffset":0,
			"target":34962
		},
		{
			"buffer":0,
			"byteLength":44448,
			"byteOffset":44448,
			"target":34962
		},
		{
			"buffer":0,
			"byteLength":29632,
			"byteOffset":88896,
			"target":34962
		},
		{
			"buffer":0,
			"byteLength":10812,
			"byteOffset":118528,
			"target":34963
		}
	],
	"samplers":[
		{
			"magFilter":9729,
			"minFilter":9987
		}
	],
	"buffers":[
		{
			"byteLength":129340,
			"uri":"hppotion.bin"
		}
	]
}
