{
	"asset":{
		"generator":"Khronos glTF Blender I/O v5.1.18",
		"version":"2.0"
	},
	"scene":0,
	"scenes":[
		{
			"name":"Scene",
			"nodes":[
				0
			]
		}
	],
	"nodes":[
		{
			"mesh":0,
			"name":"Icosphere.087",
			"rotation":[
				-0.2956874668598175,
				0.00025428441585972905,
				-0.9552843570709229,
				0.0008210681844502687
			],
			"scale":[
				0.21420900523662567,
				0.21420903503894806,
				0.21420900523662567
			],
			"translation":[
				-0.5046782493591309,
				0,
				-4.878559589385986
			]
		}
	],
	"materials":[
		{
			"doubleSided":true,
			"name":"Material.001",
			"pbrMetallicRoughness":{
				"baseColorTexture":{
					"index":0
				},
				"metallicFactor":0,
				"roughnessFactor":0.5
			}
		}
	],
	"meshes":[
		{
			"name":"Icosphere.087",
			"primitives":[
				{
					"attributes":{
						"POSITION":0,
						"NORMAL":1,
						"TEXCOORD_0":2
					},
					"indices":3,
					"material":0
				}
			]
		}
	],
	"textures":[
		{
			"sampler":0,
			"source":0
		}
	],
	"images":[
		{
			"mimeType":"image/png",
			"name":"Tree_BaseColour",
			"uri":"Tree_BaseColour.png"
		}
	],
	"accessors":[
		{
			"bufferView":0,
			"componentType":5126,
			"count":131658,
			"max":[
				58.40737533569336,
				1.3189270496368408,
				65.6973876953125
			],
			"min":[
				-35.47884750366211,
				-8.995457649230957,
				-27.689451217651367
			],
			"type":"VEC3"
		},
		{
			"bufferView":1,
			"componentType":5126,
			"count":131658,
			"type":"VEC3"
		},
		{
			"bufferView":2,
			"componentType":5126,
			"count":131658,
			"type":"VEC2"
		},
		{
			"bufferView":3,
			"componentType":5125,
			"count":177840,
			"type":"SCALAR"
		}
	],
	"bufferViews":[
		{
			"buffer":0,
			"byteLength":1579896,
			"byteOffset":0,
			"target":34962
		},
		{
			"buffer":0,
			"byteLength":1579896,
			"byteOffset":1579896,
			"target":34962
		},
		{
			"buffer":0,
			"byteLength":1053264,
			"byteOffset":3159792,
			"target":34962
		},
		{
			"buffer":0,
			"byteLength":711360,
			"byteOffset":4213056,
			"target":34963
		}
	],
	"samplers":[
		{
			"magFilter":9729,
			"minFilter":9987
		}
	],
	"buffers":[
		{
			"byteLength":4924416,
			"uri":"Group%20of%20treesSquare.bin"
		}
	]
}
