{
	"asset":{
		"generator":"Khronos glTF Blender I/O v5.0.21",
		"version":"2.0"
	},
	"scene":0,
	"scenes":[
		{
			"name":"Scene",
			"nodes":[
				0
			]
		}
	],
	"nodes":[
		{
			"mesh":0,
			"name":"buddha",
			"rotation":[
				0.7071068286895752,
				0,
				0,
				0.7071068286895752
			]
		}
	],
	"meshes":[
		{
			"name":"buddha",
			"primitives":[
				{
					"attributes":{
						"POSITION":0,
						"NORMAL":1
					},
					"indices":2
				}
			]
		}
	],
	"accessors":[
		{
			"bufferView":0,
			"componentType":5126,
			"count":551668,
			"max":[
				0.22205400466918945,
				0.18680700659751892,
				0.44594499468803406
			],
			"min":[
				-0.18861499428749084,
				-0.22434599697589874,
				-0.5540549755096436
			],
			"type":"VEC3"
		},
		{
			"bufferView":1,
			"componentType":5126,
			"count":551668,
			"type":"VEC3"
		},
		{
			"bufferView":2,
			"componentType":5125,
			"count":3262353,
			"type":"SCALAR"
		}
	],
	"bufferViews":[
		{
			"buffer":0,
			"byteLength":6620016,
			"byteOffset":0,
			"target":34962
		},
		{
			"buffer":0,
			"byteLength":6620016,
			"byteOffset":6620016,
			"target":34962
		},
		{
			"buffer":0,
			"byteLength":13049412,
			"byteOffset":13240032,
			"target":34963
		}
	],
	"buffers":[
		{
			"byteLength":26289444,
			"uri":"Buddha.bin"
		}
	]
}
