{
	"asset":{
		"generator":"Khronos glTF Blender I/O v4.5.47",
		"version":"2.0"
	},
	"scene":0,
	"scenes":[
		{
			"name":"Scene",
			"nodes":[
				0
			]
		}
	],
	"nodes":[
		{
			"mesh":0,
			"name":"Icosphere.001",
			"rotation":[
				-0.2956874668598175,
				0.00025428441585972905,
				-0.9552843570709229,
				0.0008210681844502687
			],
			"scale":[
				0.21420900523662567,
				0.21420903503894806,
				0.21420900523662567
			]
		}
	],
	"materials":[
		{
			"doubleSided":true,
			"name":"Material.001",
			"pbrMetallicRoughness":{
				"baseColorTexture":{
					"index":0
				},
				"metallicFactor":0,
				"roughnessFactor":0.5
			}
		}
	],
	"meshes":[
		{
			"name":"Icosphere.001",
			"primitives":[
				{
					"attributes":{
						"POSITION":0,
						"NORMAL":1,
						"TEXCOORD_0":2
					},
					"indices":3,
					"material":0
				}
			]
		}
	],
	"textures":[
		{
			"sampler":0,
			"source":0
		}
	],
	"images":[
		{
			"mimeType":"image/png",
			"name":"Tree_BaseColour",
			"uri":"Tree_BaseColour.png"
		}
	],
	"accessors":[
		{
			"bufferView":0,
			"componentType":5126,
			"count":477,
			"max":[
				2.259455680847168,
				1.2616331577301025,
				2.148866891860962
			],
			"min":[
				-2.14886212348938,
				-8.898926734924316,
				-2.148866891860962
			],
			"type":"VEC3"
		},
		{
			"bufferView":1,
			"componentType":5126,
			"count":477,
			"type":"VEC3"
		},
		{
			"bufferView":2,
			"componentType":5126,
			"count":477,
			"type":"VEC2"
		},
		{
			"bufferView":3,
			"componentType":5123,
			"count":684,
			"type":"SCALAR"
		}
	],
	"bufferViews":[
		{
			"buffer":0,
			"byteLength":5724,
			"byteOffset":0,
			"target":34962
		},
		{
			"buffer":0,
			"byteLength":5724,
			"byteOffset":5724,
			"target":34962
		},
		{
			"buffer":0,
			"byteLength":3816,
			"byteOffset":11448,
			"target":34962
		},
		{
			"buffer":0,
			"byteLength":1368,
			"byteOffset":15264,
			"target":34963
		}
	],
	"samplers":[
		{
			"magFilter":9729,
			"minFilter":9987
		}
	],
	"buffers":[
		{
			"byteLength":16632,
			"uri":"Tree.bin"
		}
	]
}
